<svg width="652" height="652" viewBox="0 0 652 652" fill="none" xmlns="http://www.w3.org/2000/svg">
<rect width="652" height="652" fill="#0E0E0C"/>
<path d="M33.8276 387V27.7136H52.0964V387H33.8276ZM70.3652 387V27.7136H88.634V387H70.3652ZM106.903 387V27.7136H125.172V387H106.903ZM179.978 387V27.7136H234.784V387H179.978ZM253.053 387V27.7136H307.86V387H253.053ZM186.068 583.694C174.7 583.694 164.957 580.649 156.837 574.56C148.718 568.876 142.425 560.554 137.96 549.592C133.494 539.037 131.261 526.655 131.261 512.446C131.261 493.771 134.103 478.953 139.787 467.992C145.47 457.03 152.372 449.317 160.491 444.851C168.611 440.791 176.73 438.762 184.85 438.762C193.375 438.762 201.495 440.994 209.208 445.46C217.328 449.52 223.214 455.204 226.868 462.511L215.907 471.036L214.08 472.863L213.471 471.645C213.471 470.428 213.268 469.21 212.862 467.992C212.05 467.18 210.832 465.759 209.208 463.729C205.554 459.669 201.901 456.827 198.247 455.204C194.593 453.58 190.127 452.768 184.85 452.768C173.888 452.768 164.754 457.03 157.446 465.556C150.545 474.487 147.094 488.899 147.094 508.792C147.094 528.279 150.545 543.3 157.446 553.855C164.348 564.41 173.888 569.688 186.068 569.688C190.533 569.688 195.202 568.876 200.074 567.252C205.351 566.034 209.614 564.004 212.862 561.163V527.67H187.285V513.664H227.477V569.079C214.08 578.822 200.277 583.694 186.068 583.694ZM326.414 387V27.7136H344.683V387H326.414ZM362.951 387V27.7136H417.758V387H362.951ZM436.027 387V27.7136H454.295V387H436.027ZM509.102 387V27.7136H527.371V387H509.102ZM545.639 387V27.7136H600.446V387H545.639ZM426.892 439.98H467.084C482.511 439.98 494.081 443.024 501.794 449.114C509.914 455.204 513.973 463.729 513.973 474.69C513.973 481.592 512.147 487.884 508.493 493.568C504.433 499.252 499.155 503.311 492.66 505.747C500.779 508.589 507.275 513.258 512.147 519.753C517.018 526.655 519.454 533.962 519.454 541.676C519.454 553.855 514.988 563.598 506.057 570.906C497.532 577.807 484.337 581.258 466.475 581.258H426.892V439.98ZM464.648 498.44C486.976 498.44 498.14 490.929 498.14 475.908C498.14 469.413 495.502 464.135 490.224 460.075C485.352 455.609 477.639 453.377 467.084 453.377H442.116V498.44H464.648ZM469.519 567.252C491.442 567.252 502.403 558.321 502.403 540.458C502.403 521.377 490.021 511.837 465.257 511.837H442.116V567.252H469.519Z" fill="#B6DF61"/>
</svg>
